<svg id="Layer_1" data-name="Layer 1" xmlns="http://www.w3.org/2000/svg" viewBox="0 0 60 67.62"><defs><style>.cls-1{fill:#fff;}.cls-2{fill:#ff5b64;}</style></defs><g id="Chatbot_Icon" data-name="Chatbot Icon"><path class="cls-1" d="M990,566.19H939.6a9.63,9.63,0,0,1-9.6-9.6v-40.8a9.6,9.6,0,0,1,9.6-9.6h40.8a9.63,9.63,0,0,1,9.6,9.6Z" transform="translate(-930 -506.19)"/><path class="cls-1" d="M973.2,566.19l15.5,7.53a.91.91,0,0,0,1.3-.82v-6.71Z" transform="translate(-930 -506.19)"/><g id="Lips"><path class="cls-2" d="M960.25,556.68a41.65,41.65,0,0,1-20.52-5.39,1.32,1.32,0,0,1-.47-1.84h0A1.32,1.32,0,0,1,941,549a39.07,39.07,0,0,0,37.94.27,1.33,1.33,0,0,1,1.78.48h0a1.33,1.33,0,0,1-.5,1.83A41.75,41.75,0,0,1,960.25,556.68Z" transform="translate(-930 -506.19)"/></g></g></svg>